<?xml version="1.0" encoding="utf-8"?>
<svg version="1.1" xmlns="http://www.w3.org/2000/svg" xmlns:xlink="http://www.w3.org/1999/xlink" x="0px" y="0px"
	 enable-background="new 0 0 178 47" xml:space="preserve" width="178px" height="47px">
<g>
	<polygon fill="#000000" points="71.8,18 73,18 73,14.3 75.7,14.3 75.7,13.2 73,13.2 73,11.2 75.8,11.2 75.8,10 71.8,10 	"/>
	<polygon fill="#000000" points="77.6,18 82,18 82,16.8 78.8,16.8 78.8,14.3 81.9,14.3 81.9,13.2 78.8,13.2 78.8,11.2 82,11.2 82,10 77.6,10 	"/>
	<path d="M87.1,9.5l-4,8.5h1.3l0.9-1.9h3.4l0.8,1.9h1.3L87.1,9.5z M85.8,14.9l1.2-2.7l1.2,2.7H85.8z"/>
	<polygon fill="#000000" points="91,11.2 92.8,11.2 92.8,18 94,18 94,11.2 95.9,11.2 95.9,10 91,10 	"/>
	<path d="M102.1,14.8c0,0.4,0,1-0.3,1.4c-0.2,0.4-0.8,0.8-1.5,0.8c-0.7,0-1.2-0.4-1.5-0.8c-0.2-0.4-0.3-0.9-0.3-1.4V10h-1.2v5.1
		c0,0.6,0.1,1.4,0.7,2.1c0.4,0.5,1.1,0.9,2.2,0.9c1.1,0,1.8-0.5,2.2-0.9c0.6-0.7,0.7-1.4,0.7-2.1V10h-1.2V14.8z"/>
	<path d="M108.3,14.6c1.1-0.2,1.8-1.1,1.8-2.2c0-0.3-0.1-1.3-0.9-1.9c-0.5-0.3-1.1-0.5-2.1-0.5h-1.4v8h1.2v-3.3h0.2l2.3,3.3h1.5
		L108.3,14.6z M106.9,13.7v-2.5h0.4c0.6,0,1.7,0.1,1.7,1.2c0,1.3-1.4,1.3-1.7,1.3H106.9z"/>
	<polygon fill="#000000" points="112.5,18 116.9,18 116.9,16.8 113.7,16.8 113.7,14.3 116.8,14.3 116.8,13.2 113.7,13.2 113.7,11.2 116.9,11.2
		116.9,10 112.5,10 	"/>
	<path d="M123.5,10.8c-0.9-0.7-1.9-0.8-3-0.8h-1.7v8h1.7c1.1,0,2-0.1,2.9-0.8c1.1-0.7,1.6-1.9,1.6-3.2
		C125.1,12.7,124.5,11.5,123.5,10.8z M122.8,16.3c-0.7,0.5-1.5,0.6-2.1,0.6h-0.5v-5.7h0.5c0.6,0,1.4,0,2.1,0.6
		c0.6,0.4,1.1,1.2,1.1,2.3C123.8,15.1,123.3,15.9,122.8,16.3z"/>
	<path d="M134.5,14.3c-0.4-0.4-0.9-0.5-1-0.6c0.2-0.1,0.4-0.2,0.6-0.6c0.2-0.3,0.2-0.6,0.2-0.9c0-0.7-0.2-1.2-0.6-1.6
		c-0.5-0.5-1.2-0.6-2.2-0.6h-1.2v8h2c0.6,0,1.6-0.1,2.2-0.8c0.4-0.4,0.5-0.9,0.5-1.4C135,15.3,134.9,14.7,134.5,14.3z M131.5,11.2
		h0.4c0.3,0,0.7,0,1,0.3c0.3,0.2,0.3,0.5,0.3,0.8c0,0.3,0,0.6-0.3,0.9c-0.3,0.3-0.7,0.3-1,0.3h-0.4V11.2z M133.4,16.5
		c-0.3,0.3-0.9,0.3-1.2,0.3h-0.7v-2.4h0.8c0.4,0,0.9,0,1.3,0.4c0.2,0.2,0.3,0.5,0.3,0.8C133.8,16,133.7,16.3,133.4,16.5z"/>
	<polygon fill="#000000" points="139.1,13.2 137.3,10 135.9,10 138.5,14.5 138.5,18 139.7,18 139.7,14.5 142.4,10 141,10 	"/>
	<path d="M146,18h1.3l0.9-1.9h3.4l0.8,1.9h1.3L150,9.5L146,18z M148.7,14.9l1.2-2.7l1.2,2.7H148.7z"/>
	<path d="M158.8,10.4c-0.6-0.4-1.3-0.4-1.8-0.4h-1.8v8h1.2v-3.2h0.6c0.6,0,1.3-0.1,2-0.6c0.7-0.6,0.8-1.3,0.8-1.8
		C159.8,11.6,159.4,10.9,158.8,10.4z M157,13.6h-0.6v-2.5h0.5c1.4,0,1.6,0.8,1.6,1.2C158.6,13.1,158.1,13.6,157,13.6z"/>
	<path d="M164.9,10.4c-0.6-0.4-1.3-0.4-1.8-0.4h-1.8v8h1.2v-3.2h0.6c0.6,0,1.3-0.1,2-0.6c0.7-0.6,0.8-1.3,0.8-1.8
		C165.9,11.6,165.6,10.9,164.9,10.4z M163.2,13.6h-0.6v-2.5h0.5c1.4,0,1.6,0.8,1.6,1.2C164.8,13.1,164.3,13.6,163.2,13.6z"/>
	<polygon fill="#000000" points="168.8,10 167.6,10 167.6,18 171.2,18 171.2,16.8 168.8,16.8 	"/>
	<polygon fill="#000000" points="177.2,11.2 177.2,10 172.8,10 172.8,18 177.2,18 177.2,16.8 174,16.8 174,14.3 177.1,14.3 177.1,13.2 174,13.2
		174,11.2 	"/>
</g>
<g>
	<path fill="#000000" d="M95.5,33.7h-4.8l-1.2,2.7h-1.8l5.6-11.9l5.3,11.9h-1.8L95.5,33.7z M94.8,32.1l-1.7-3.8l-1.7,3.8H94.8z"/>
	<path fill="#000000" d="M103,25.2c0.7,0,1.6,0.1,2.5,0.6c0.9,0.6,1.4,1.7,1.4,2.7c0,0.7-0.2,1.7-1.1,2.5c-0.9,0.8-1.9,0.9-2.7,0.9h-0.8v4.6h-1.7
		V25.2H103z M102.3,30.3h0.8c1.5,0,2.2-0.7,2.2-1.8c0-0.6-0.3-1.7-2.2-1.7h-0.8V30.3z"/>
	<path fill="#000000" d="M111.7,25.2c0.7,0,1.6,0.1,2.5,0.6c0.9,0.6,1.4,1.7,1.4,2.7c0,0.7-0.2,1.7-1.1,2.5c-0.9,0.8-1.9,0.9-2.7,0.9h-0.8v4.6h-1.7
		V25.2H111.7z M110.9,30.3h0.8c1.5,0,2.2-0.7,2.2-1.8c0-0.6-0.3-1.7-2.2-1.7h-0.8V30.3z"/>
	<path fill="#000000" d="M127.2,27.7c-0.1-0.3-0.3-0.5-0.5-0.7c-0.4-0.3-0.7-0.4-1.2-0.4c-1,0-1.6,0.6-1.6,1.3c0,0.3,0.1,0.9,1.2,1.4l1.1,0.5
		c2.1,0.8,2.6,2,2.6,3.3c0,2.1-1.5,3.6-3.6,3.6c-1.3,0-2.1-0.5-2.6-1.1c-0.6-0.7-0.9-1.4-0.9-2.2l1.7-0.4c0,0.6,0.2,1.1,0.5,1.4
		c0.3,0.4,0.8,0.7,1.5,0.7c1,0,1.8-0.8,1.8-1.9c0-1.1-0.9-1.6-1.6-1.9l-1.1-0.5c-0.9-0.4-2.3-1.2-2.3-2.8c0-1.5,1.2-3,3.3-3
		c1.2,0,1.9,0.5,2.3,0.8c0.3,0.3,0.6,0.7,0.9,1.1L127.2,27.7z"/>
	<path fill="#000000" d="M134.4,26.8v9.6h-1.7v-9.6h-2.6v-1.6h6.9v1.6H134.4z"/>
	<path fill="#000000" d="M149.8,30.8c0,3.3-2.5,5.8-5.8,5.8s-5.8-2.5-5.8-5.8c0-3.3,2.5-5.8,5.8-5.8S149.8,27.5,149.8,30.8z M148.1,30.8
		c0-2.5-1.7-4.2-4.1-4.2s-4.1,1.7-4.1,4.2s1.7,4.2,4.1,4.2S148.1,33.3,148.1,30.8z"/>
	<path fill="#000000" d="M154.6,25.2c1.4,0,2.2,0.2,3,0.7c1.2,0.8,1.3,2.2,1.3,2.6c0,1.6-1,2.8-2.5,3.1l3.5,4.8h-2.1l-3.2-4.6h-0.3v4.6h-1.7V25.2
		H154.6z M154.3,30.3h0.5c0.5,0,2.4-0.1,2.4-1.8c0-1.6-1.5-1.7-2.3-1.7h-0.6V30.3z"/>
	<path fill="#000000" d="M169.4,26.8H165v2.8h4.3v1.6H165v3.5h4.5v1.6h-6.2V25.2h6.2V26.8z"/>
</g>
<g>
	<path fill="#000000" d="M76.1,27.4c0,1.4-1.1,2.5-2.5,2.5s-2.5-1.1-2.5-2.5c0-1.4,1.1-2.5,2.5-2.5S76.1,26,76.1,27.4z M75.4,27.4
		c0-1.1-0.7-1.8-1.8-1.8c-1,0-1.8,0.7-1.8,1.8c0,1.1,0.7,1.8,1.8,1.8C74.7,29.2,75.4,28.5,75.4,27.4z"/>
	<path fill="#000000" d="M77.3,29.8v-5.1l3.5,3.7V25h0.7v5.1l-3.5-3.7v3.4H77.3z"/>
</g>
<g>
	<path fill="#000000" d="M72.7,32.9V37H72v-4.1h-1.1v-0.7h2.9v0.7H72.7z"/>
	<path fill="#000000" d="M75.4,34.1h2.1v-1.9h0.7V37h-0.7v-2.2h-2.1V37h-0.7v-4.8h0.7V34.1z"/>
	<path fill="#000000" d="M82.3,32.9h-1.9v1.2h1.9v0.7h-1.9v1.5h1.9V37h-2.7v-4.8h2.7V32.9z"/>
</g>
<path fill="#000000" d="M10.7,3.9C10,5.8,8.8,7.9,6.8,10C6.3,7,7.7,4.4,9,2.9c1.5-1.5,2.7-2.2,2.7-2.2S11.5,2.2,10.7,3.9z
	 M4.6,22.6c-2-1.2-2.8-3.4-3.1-5.4c-0.2-1.1-0.1-2-0.1-2.8c0.1-0.7,0.2-1.1,0.2-1.1s0.9,0.9,1.7,2.6c0.8,1.4,1.4,3.1,1.7,5.4
	c0,0,0,0,0,0c0.2-2.3,1.4-3.9,2.3-4.9c1.3-1.2,2.5-1.5,2.5-1.5s-0.1,0.3-0.2,0.9c-0.2,0.5-0.4,1.3-0.7,2.1c-0.6,1.5-1.6,3.2-3.3,4.6
	l0.1,1.2c0,0.3-0.2,0.5-0.4,0.5c-0.3,0-0.5-0.2-0.5-0.4L4.6,22.6z M4.9,16.1l0.2-1.1C1.8,11.7,4,5.4,4.1,5.6c0,0,0.6,1,1.1,2.8
	c0.4,1.4,0.6,3.2,0.5,5.3c0,0,0,0,0,0c0.7-2.1,2-3.3,3.2-4c1.3-0.9,2.6-0.9,2.6-0.9s-0.2,0.3-0.4,0.8c-0.2,0.5-0.6,1.1-1.1,1.8
	c-1,1.2-2.1,2.7-4,3.6l-0.2,1.2c-0.1,0.3-0.3,0.4-0.5,0.4C5,16.6,4.8,16.3,4.9,16.1z M10.7,37c-2.7,0.5-5.5-1-7.1-3
	c-1.8-2.2-2.5-4.5-2.4-4.5c0,0,1.3,0.6,3.3,1.8c1.7,1.1,3.6,2.7,5.9,4.8c0,0,0,0,0,0c0,0,0,0,0,0c-2-2.4-2-5.1-1.4-6.6
	c0.5-1.7,1.7-2.7,1.7-2.7c-0.1,0.3,1.5,4.2,0.5,9.6c0.4,0.4,1.2,1.2,1.2,1.1c0.2,0.1,0.2,0.4,0.1,0.7c-0.2,0.2-0.5,0.2-0.7,0.1
	C11.9,38.2,11.1,37.4,10.7,37z M17.4,41.4c-2.5,1.7-5.8,1.2-8.4-0.1c-1.3-0.7-2.3-1.6-3.1-2.3c-0.7-0.7-1-1.2-1-1.2s1.6,0.1,4.1,0.5
	c2.1,0.5,4.8,1.1,8,2.4c0,0,0,0,0.1-0.1c-3.1-1.6-4.3-4.1-4.3-6c-0.1-2,0.7-3.3,0.7-3.3c0,0.1,0.9,1.1,1.7,2.8
	c0.9,1.5,2,3.7,2.6,6.5l1.7,0.6c0.2,0.1,0.4,0.3,0.3,0.6c-0.1,0.2-0.4,0.4-0.6,0.3L17.4,41.4z M27.4,42.6c0.3,0,0.5,0.2,0.5,0.5
	c0,0.3-0.2,0.5-0.5,0.4l-1.8-0.1c-1.8,2.3-5,3-7.7,2.7c-2.9-0.3-5.1-1.6-5.1-1.6c0,0,1.5-0.6,3.9-1.1c2.2-0.4,4.8-0.8,8.2-0.6v0
	c0,0,0,0,0-0.1c-3.4-0.6-5.4-2.5-6.2-4.2c-0.5-0.9-0.6-1.8-0.7-2.4c-0.1-0.6,0-1,0-1s1.2,0.7,2.8,1.9c1.5,1.1,3.5,2.7,4.8,5.3
	L27.4,42.6z M6.3,30.4c-2.8-0.5-4.5-3.1-5.5-5.4c-0.4-1.2-0.6-2.4-0.7-3.3C0,20.9,0,20.4,0,20.4s1.2,0.9,2.7,2.6
	c1.2,1.5,2.5,3.7,3.7,6.5c0,0,0.1,0,0.1,0c-0.9-3,0-5.4,1.1-6.8c1.1-1.6,2.4-2.2,2.4-2.2c-0.1,0,0.1,1.5-0.4,3.4
	c-0.3,1.7-1,4-2.5,6.1l0.7,1.5c0.1,0.2,0,0.5-0.2,0.7c-0.2,0.1-0.5,0-0.6-0.2L6.3,30.4z"/>
<path fill="#000000" d="M49.3,10c-2-2.1-3.2-4.2-3.9-6c-0.8-1.7-1-3.2-1-3.2s1.3,0.7,2.7,2.2C48.5,4.4,49.9,7,49.3,10z
	 M51.1,21.2c0.3-2.3,0.9-4.1,1.7-5.4c0.8-1.6,1.7-2.6,1.7-2.6s0.1,0.4,0.2,1.1c0.1,0.7,0.2,1.7-0.1,2.8c-0.3,2-1.2,4.2-3.1,5.4
	l-0.1,1.2c0,0.3-0.3,0.5-0.5,0.4c-0.3,0-0.5-0.3-0.4-0.5l0.1-1.2c-1.7-1.4-2.7-3.1-3.3-4.6c-0.3-0.8-0.6-1.6-0.7-2.1
	c-0.1-0.6-0.2-0.9-0.2-0.9s1.2,0.3,2.5,1.5C49.7,17.3,50.9,18.9,51.1,21.2L51.1,21.2z M50.4,13.7C50.4,13.7,50.4,13.7,50.4,13.7
	c-0.2-2.2,0.1-3.9,0.5-5.3C51.4,6.6,52,5.6,52,5.6c0.2-0.1,2.3,6.1-0.9,9.4l0.2,1.1c0.1,0.3-0.1,0.5-0.4,0.5c-0.3,0-0.5-0.2-0.5-0.4
	L50.1,15c-1.9-0.9-3-2.4-4-3.6c-0.5-0.7-0.8-1.4-1.1-1.8c-0.3-0.5-0.4-0.8-0.4-0.8s1.3,0,2.6,0.9C48.3,10.3,49.7,11.6,50.4,13.7z
	 M51.6,31.3c2-1.2,3.3-1.8,3.3-1.8c0.1,0-0.6,2.2-2.4,4.5c-1.7,2-4.4,3.6-7.1,3c-0.4,0.4-1.2,1.2-1.2,1.2c-0.2,0.2-0.5,0.1-0.7-0.1
	c-0.2-0.2-0.1-0.5,0.1-0.7c0,0,0.8-0.7,1.2-1.1c-0.9-5.4,0.7-9.3,0.5-9.6c0,0,1.2,0.9,1.7,2.7c0.6,1.6,0.6,4.3-1.4,6.6c0,0,0,0,0,0
	c0,0,0,0,0,0.1C48,34,49.9,32.4,51.6,31.3z M39.2,40.7c3.1-1.3,5.8-1.9,7.9-2.4c2.4-0.4,4.1-0.5,4.1-0.5s-0.3,0.5-1,1.2
	c-0.8,0.7-1.8,1.6-3.1,2.3c-2.5,1.3-5.9,1.8-8.3,0.1l-1.7,0.7c-0.3,0.1-0.5-0.1-0.6-0.3c-0.1-0.3,0.1-0.5,0.3-0.6l1.7-0.6
	c0.5-2.8,1.7-5,2.6-6.5c0.9-1.7,1.8-2.7,1.7-2.8c0,0,0.9,1.3,0.7,3.3C43.5,36.5,42.3,39.1,39.2,40.7C39.2,40.7,39.2,40.7,39.2,40.7z
	 M31.3,42.9c3.4-0.3,6.1,0.1,8.2,0.6c2.3,0.5,3.9,1.1,3.9,1.1c0,0-2.2,1.3-5.1,1.6c-2.7,0.2-5.8-0.5-7.7-2.7l-1.8,0.1
	c-0.3,0-0.5-0.2-0.5-0.4c0-0.3,0.2-0.5,0.5-0.5l1.8-0.1c1.3-2.5,3.3-4.2,4.8-5.3c1.6-1.2,2.8-1.9,2.8-1.9s0,0.4,0,1
	c-0.1,0.6-0.2,1.5-0.7,2.4C36.7,40.3,34.7,42.2,31.3,42.9C31.3,42.8,31.3,42.8,31.3,42.9L31.3,42.9z M56.2,20.4c0,0,0.1,0.5-0.1,1.4
	c-0.1,0.9-0.4,2-0.8,3.3c-0.9,2.3-2.7,4.9-5.5,5.4L49.1,32c-0.1,0.2-0.4,0.4-0.6,0.2c-0.2-0.1-0.3-0.4-0.2-0.7L49,30
	c-1.4-2.2-2.2-4.4-2.5-6.1c-0.5-1.9-0.3-3.4-0.4-3.4c0,0,1.3,0.6,2.4,2.2c1.1,1.4,2,3.9,1.1,6.8c0,0,0.1,0,0.1,0
	c1.2-2.8,2.5-5,3.7-6.5C54.9,21.3,56.2,20.4,56.2,20.4z"/>
</svg>
