<?xml version="1.0" encoding="utf-8"?>
<svg version="1.1" xmlns="http://www.w3.org/2000/svg" xmlns:xlink="http://www.w3.org/1999/xlink" x="0px" y="0px"
	 enable-background="new 0 0 167 29" xml:space="preserve" width="167px" height="29px">
<path fill="#000000" d="M24.6,28.5V9.6l-7.1,18.8h-3.2L7.2,9.6v18.8H0V0h10.1L16,15.7L21.8,0h10.1v28.5H24.6L24.6,28.5z
	 M46.2,28.5v-2.1c-1.7,1.7-4,2.6-6.3,2.6c-1.8,0.1-3.6-0.6-4.9-1.9s-2.1-3-2.1-4.9c0-5,3.9-6.7,7-6.7c2.4-0.2,4.7,0.7,6.3,2.4v-2
	c0-1.8-1.5-3-4.1-3c-2.1,0.1-4.1,0.9-5.7,2.3L34,10.6c2.6-2.1,5.9-3.3,9.2-3.2c4.9,0,9.5,1.8,9.5,8.2v12.9H46.2L46.2,28.5z
	 M46.2,23.2v-1.8c-0.9-1-2.2-1.5-3.6-1.4c-1.7,0-3.2,0.8-3.2,2.4s1.6,2.4,3.2,2.4C44,24.8,45.3,24.3,46.2,23.2L46.2,23.2z
	 M53.2,25.8l2.7-4.7c2.1,1.7,4.6,2.6,7.2,2.8c1.9,0,2.7-0.6,2.7-1.4c0-2.6-11.8,0.1-11.8-8.3c0-3.7,3.1-6.8,8.7-6.8
	c3,0,6,0.9,8.5,2.7l-2.5,4.7c-1.7-1.5-3.8-2.3-6-2.3c-1.5,0-2.5,0.6-2.5,1.4c0,2.3,11.8-0.1,11.8,8.4c0,3.9-3.4,6.7-9.2,6.7
	c-3.5,0.1-6.9-1-9.6-3.2L53.2,25.8z M86.6,28.5v-12c0-2.5-1.3-3.3-3.4-3.3c-1.5,0-3,0.8-3.9,2v13.3h-6.5V0h6.5v10.4
	c1.8-2,4.4-3.1,7-3c4.6,0,6.7,2.6,6.7,6.4v14.7H86.6z M107.3,28.5v-2.1c-1.7,1.7-4,2.6-6.3,2.6c-1.8,0.1-3.6-0.6-4.9-1.9
	S94,24,94,22.2c0-5,3.9-6.7,7-6.7c2.4-0.2,4.7,0.7,6.3,2.4v-2c0-1.8-1.5-3-4.1-3c-2.1,0.1-4.1,0.9-5.7,2.3l-2.4-4.6
	c2.6-2.1,5.9-3.3,9.2-3.2c4.9,0,9.5,1.8,9.5,8.2v12.9H107.3z M107.3,23.2v-1.8c-0.9-1-2.2-1.5-3.6-1.4c-1.7,0-3.2,0.8-3.2,2.4
	s1.6,2.4,3.2,2.4C105,24.8,106.4,24.3,107.3,23.2L107.3,23.2z M116,28.5V0h6.5v10.3c1.4-1.9,3.7-3,6-2.9c5.1,0,9,4.1,9,10.8
	c0,7-4,10.8-9,10.8c-2.3,0-4.5-1.1-6-2.9v2.4L116,28.5L116,28.5z M126.3,23.2c2.6,0,4.5-1.9,4.5-5s-1.9-5-4.5-5
	c-1.5,0-2.9,0.7-3.9,1.9v6.3C123.4,22.5,124.8,23.1,126.3,23.2L126.3,23.2z M138.3,0h6.5v28.5h-6.5V0z M145.8,18.1
	c-0.1-2.9,1.1-5.7,3.1-7.8c2-2,4.8-3.1,7.7-3c6,0,10.4,4.5,10.4,11.5v1.5h-14.5c0.5,1.8,2.2,3.4,5.1,3.4c1.8,0,3.5-0.6,5-1.8
	l2.8,4.3c-2.4,1.9-5.4,2.8-8.5,2.7C150.6,29,145.8,24.8,145.8,18.1L145.8,18.1z M156.6,12.6c-2-0.2-3.8,1.2-4.2,3.2h8.4
	C160.7,14.4,159.7,12.6,156.6,12.6L156.6,12.6z"/>
</svg>
