<?xml version="1.0" encoding="utf-8"?>
<svg version="1.1" xmlns="http://www.w3.org/2000/svg" xmlns:xlink="http://www.w3.org/1999/xlink" x="0px" y="0px"
	 enable-background="new 0 0 180 42" xml:space="preserve" width="180px" height="42px">
<path fill="#000000" d="M42.1,21c0,11.6-9.4,21-21.1,21S0,32.6,0,21S9.4,0,21.1,0S42.1,9.4,42.1,21z M23.9,10.5L23.9,10.5H13.7
	v21h4.2v-6.3h6v0c4.1,0,7.4-3.3,7.4-7.4S28,10.5,23.9,10.5z M17.9,21v-6.3h6c1.7,0,3.2,1.4,3.2,3.1S25.6,21,23.9,21L17.9,21z
	 M56.2,28V14h6.5c3,0,4.6,2,4.6,4.4c0,2.4-1.7,4.4-4.6,4.4h-3.5V28H56.2z M69.1,28V17.8h2.6v1.3c0.7-0.9,1.9-1.6,3.2-1.6v2.6
	c-0.2,0-0.4-0.1-0.7-0.1c-0.9,0-2,0.5-2.5,1.1V28H69.1z M75.9,22.8c0-2.8,2-5.2,5.3-5.2c3.3,0,5.3,2.4,5.3,5.2s-2,5.2-5.3,5.2
	C77.9,28,75.9,25.6,75.9,22.8z M95.3,28v-1.5c-0.8,1-1.9,1.5-3.1,1.5c-2.5,0-4.4-1.9-4.4-5.2c0-3.2,1.9-5.2,4.4-5.2
	c1.2,0,2.3,0.5,3.1,1.5V14h2.6v14H95.3z M107.3,28v-1.5c-0.7,0.7-1.9,1.5-3.5,1.5c-2.2,0-3.2-1.2-3.2-3.1v-7.1h2.6v6
	c0,1.4,0.7,1.8,1.8,1.8c1,0,1.8-0.6,2.3-1.1v-6.7h2.6V28H107.3z M111.9,22.8c0-3.1,2.2-5.2,5.3-5.2c2,0,3.3,0.9,4,1.8l-1.7,1.6
	c-0.5-0.7-1.2-1.1-2.1-1.1c-1.6,0-2.7,1.2-2.7,2.9s1.1,2.9,2.7,2.9c0.9,0,1.6-0.4,2.1-1.1l1.7,1.6c-0.7,0.9-1.9,1.8-4,1.8
	C114.1,28,111.9,25.8,111.9,22.8z M123.4,25.3v-5.2h-1.7v-2.3h1.7v-2.7h2.6v2.7h2v2.3h-2v4.5c0,0.6,0.3,1.1,0.9,1.1
	c0.4,0,0.8-0.1,0.9-0.3l0.6,2c-0.4,0.4-1.1,0.6-2.2,0.6C124.4,28,123.4,27.1,123.4,25.3z M144.9,28v-6h-6.5v6h-2.9V14h2.9v5.4h6.5
	V14h3v14H144.9z M157.2,28v-1.5c-0.7,0.7-1.9,1.5-3.5,1.5c-2.2,0-3.2-1.2-3.2-3.1v-7.1h2.6v6c0,1.4,0.7,1.8,1.8,1.8
	c1,0,1.8-0.6,2.3-1.1v-6.7h2.6V28H157.2z M169.2,28v-6.3c0-1.4-0.7-1.9-1.8-1.9c-1,0-1.8,0.6-2.3,1.2v7h-2.6V17.8h2.6v1.3
	c0.6-0.7,1.9-1.5,3.5-1.5c2.2,0,3.3,1.2,3.3,3.2V28H169.2z M175,25.3v-5.2h-1.7v-2.3h1.7v-2.7h2.6v2.7h2v2.3h-2v4.5
	c0,0.6,0.3,1.1,0.9,1.1c0.4,0,0.8-0.1,0.9-0.3l0.6,2c-0.4,0.4-1.1,0.6-2.2,0.6C176,28,175,27.1,175,25.3z M62.2,16.6h-3.1v3.7h3.1
	c1.2,0,2-0.7,2-1.8C64.3,17.3,63.4,16.6,62.2,16.6z M81.1,19.9c-1.6,0-2.5,1.3-2.5,2.9c0,1.6,0.9,2.9,2.5,2.9c1.7,0,2.6-1.3,2.6-2.9
	C83.7,21.2,82.8,19.9,81.1,19.9z M95.3,21c-0.4-0.7-1.4-1.1-2.3-1.1c-1.5,0-2.5,1.2-2.5,2.9c0,1.7,1,2.9,2.5,2.9
	c0.9,0,1.8-0.5,2.3-1.1V21z"/>
</svg>
